<svg xmlns="http://www.w3.org/2000/svg" viewBox="0 0 300 300" width="300" height="300"
    preserveAspectRatio="xMidYMid meet" style="width: 100%; height: 100%; transform: translate3d(0px, 0px, 0px);">
    <defs>
        <clipPath id="__lottie_element_70">
            <rect width="300" height="300" x="0" y="0"></rect>
        </clipPath>
        <clipPath id="__lottie_element_72">
            <path d="M0,0 L840,0 L840,936 L0,936z"></path>
        </clipPath>
        <clipPath id="__lottie_element_75">
            <path d="M0,0 L1600,0 L1600,1600 L0,1600z"></path>
        </clipPath>
        <clipPath id="__lottie_element_76">
            <path fill="#ffffff" clip-rule="nonzero"
                d=" M800.6010131835938,592.6229858398438 C635.6259765625,592.6229858398438 501.8869934082031,726.3619995117188 501.8869934082031,891.3369750976562 C501.8869934082031,1056.31201171875 635.6259765625,1190.050048828125 800.6010131835938,1190.050048828125 C965.5759887695312,1190.050048828125 1099.31494140625,1056.31201171875 1099.31494140625,891.3369750976562 C1099.31494140625,726.3619995117188 965.5759887695312,592.6229858398438 800.6010131835938,592.6229858398438"
                fill-opacity="1"></path>
        </clipPath>
        <mask id="__lottie_element_82" mask-type="alpha">
            <g transform="matrix(1,0,0,1,801.0570068359375,848.531982421875)" opacity="1" style="display: block;">
                <g opacity="1" transform="matrix(4,0,0,4,0,0)">
                    <path fill="rgb(255,0,0)" fill-opacity="1"
                        d=" M-35.638999938964844,-42.10599899291992 C-25.608999252319336,-47.26599884033203 -13.718999862670898,-49.83599853515625 0.0010000000474974513,-49.83599853515625 C13.720999717712402,-49.83599853515625 25.611000061035156,-47.26599884033203 35.64099884033203,-42.10599899291992 C50.840999603271484,-34.2859992980957 60.4010009765625,-18.625999450683594 60.4010009765625,-1.5360000133514404 C60.4010009765625,-1.5360000133514404 60.4010009765625,19.923999786376953 60.4010009765625,19.923999786376953 C60.4010009765625,25.624000549316406 57.56100082397461,30.95400047302246 52.83100128173828,34.14400100708008 C37.30099868774414,44.604000091552734 19.590999603271484,49.83399963378906 -0.2590000033378601,49.83399963378906 C-20.099000930786133,49.83399963378906 -37.67900085449219,44.604000091552734 -52.93899917602539,34.15399932861328 C-57.60900115966797,30.964000701904297 -60.39899826049805,25.663999557495117 -60.39899826049805,20.013999938964844 C-60.39899826049805,20.013999938964844 -60.39899826049805,-1.5360000133514404 -60.39899826049805,-1.5360000133514404 C-60.39899826049805,-18.625999450683594 -50.8390007019043,-34.2859992980957 -35.638999938964844,-42.10599899291992z">
                    </path>
                </g>
            </g>
        </mask>
        <mask id="__lottie_element_78" mask-type="alpha">
            <g transform="matrix(1,0,0,1,799.89501953125,847.2360229492188)" opacity="0.5" style="display: block;">
                <g opacity="1" transform="matrix(4,0,0,4,0,0)">
                    <path fill="rgb(151,221,255)" fill-opacity="1"
                        d=" M-35.16999816894531,-39.61399841308594 C-25.09000015258789,-44.933998107910156 -13.130000114440918,-47.59400177001953 0.7200000286102295,-47.59400177001953 C13.65999984741211,-47.59400177001953 24.8700008392334,-45.2140007019043 34.36000061035156,-40.45399856567383 C34.36000061035156,-40.45399856567383 34.36000061035156,-40.45399856567383 34.36000061035156,-40.45399856567383 C49.15999984741211,-33.02399826049805 58.5,-17.884000778198242 58.5,-1.3339999914169312 C58.5,-1.3339999914169312 58.5,20.549999237060547 58.5,20.549999237060547 C58.5,25.68000030517578 55.93000030517578,30.469999313354492 51.650001525878906,33.29999923706055 C36.599998474121094,43.27000045776367 19.450000762939453,48.25 0.20000000298023224,48.25 C-19.059999465942383,48.25 -36.31999969482422,43.2599983215332 -51.58000183105469,33.279998779296875 C-51.58000183105469,33.279998779296875 -51.58000183105469,33.279998779296875 -51.58000183105469,33.279998779296875 C-55.900001525878906,30.459999084472656 -58.5,25.639999389648438 -58.5,20.479999542236328 C-58.5,20.479999542236328 -58.5,-0.9039999842643738 -58.5,-0.9039999842643738 C-58.5,-17.134000778198242 -49.52000045776367,-32.034000396728516 -35.16999816894531,-39.61399841308594z">
                    </path>
                </g>
            </g>
        </mask>
        <clipPath id="__lottie_element_96">
            <path d="M0,0 L1600,0 L1600,1600 L0,1600z"></path>
        </clipPath>
        <clipPath id="__lottie_element_108">
            <path d="M0,0 L1600,0 L1600,1600 L0,1600z"></path>
        </clipPath>
        <mask id="__lottie_element_124" mask-type="alpha">
            <g transform="matrix(1,0,0,1,801.0570068359375,848.531982421875)" opacity="1" style="display: block;">
                <g opacity="1" transform="matrix(4,0,0,4,0,0)">
                    <path fill="rgb(255,0,0)" fill-opacity="1"
                        d=" M-35.638999938964844,-42.10599899291992 C-25.608999252319336,-47.26599884033203 -13.718999862670898,-49.83599853515625 0.0010000000474974513,-49.83599853515625 C13.720999717712402,-49.83599853515625 25.611000061035156,-47.26599884033203 35.64099884033203,-42.10599899291992 C50.840999603271484,-34.2859992980957 60.4010009765625,-18.625999450683594 60.4010009765625,-1.5360000133514404 C60.4010009765625,-1.5360000133514404 60.4010009765625,19.923999786376953 60.4010009765625,19.923999786376953 C60.4010009765625,25.624000549316406 57.56100082397461,30.95400047302246 52.83100128173828,34.14400100708008 C37.30099868774414,44.604000091552734 19.590999603271484,49.83399963378906 -0.2590000033378601,49.83399963378906 C-20.099000930786133,49.83399963378906 -37.67900085449219,44.604000091552734 -52.93899917602539,34.15399932861328 C-57.60900115966797,30.964000701904297 -60.39899826049805,25.663999557495117 -60.39899826049805,20.013999938964844 C-60.39899826049805,20.013999938964844 -60.39899826049805,-1.5360000133514404 -60.39899826049805,-1.5360000133514404 C-60.39899826049805,-18.625999450683594 -50.8390007019043,-34.2859992980957 -35.638999938964844,-42.10599899291992z">
                    </path>
                </g>
            </g>
        </mask>
        <clipPath id="__lottie_element_126">
            <path d="M0,0 L1600,0 L1600,1600 L0,1600z"></path>
        </clipPath>
        <clipPath id="__lottie_element_139">
            <path d="M0,0 L1600,0 L1600,1600 L0,1600z"></path>
        </clipPath>
        <clipPath id="__lottie_element_140">
            <path fill="#ffffff" clip-rule="nonzero"
                d=" M1007,722 C1007,722 504,721.885009765625 504,721.885009765625 C504,721.885009765625 504,1102.885009765625 504,1102.885009765625 C504,1102.885009765625 1007,1102.885009765625 1007,1102.885009765625 C1007,1102.885009765625 1007.0009765625,1037 1007.0009765625,1037 C1007.0009765625,1037 975.0020141601562,1037 929.0020141601562,1037 C883.0020141601562,1037 849.0009765625,1037 849.0009765625,1037 C849.0009765625,1037 745.0009765625,1037 745.0009765625,1037 C745.0009765625,1037 720.0020141601562,1037 669.0020141601562,1037 C618.0020141601562,1037 588.0009765625,1037 588.0009765625,1037 C588.0009765625,1037 588,818.1539916992188 588,818.1539916992188 C588,818.1539916992188 621,785.135009765625 670,785.135009765625 C719,785.135009765625 746,818.1539916992188 746,818.1539916992188 C746,818.1539916992188 850,818 850,818 C850,818 877,785.4240112304688 929,785.4240112304688 C981,785.4240112304688 1006,817.6539916992188 1006,817.6539916992188 C1006,817.6539916992188 1007,722 1007,722"
                fill-opacity="1"></path>
        </clipPath>
        <clipPath id="__lottie_element_152">
            <path d="M0,0 L1600,0 L1600,1600 L0,1600z"></path>
        </clipPath>
        <clipPath id="__lottie_element_161">
            <path d="M0,0 L1600,0 L1600,1600 L0,1600z"></path>
        </clipPath>
    </defs>
    <g clip-path="url(#__lottie_element_70)">
        <g clip-path="url(#__lottie_element_72)"
            transform="matrix(0.4650000035762787,0,0,0.4650000035762787,-45.30000305175781,-62.6199951171875)"
            opacity="1" style="display: block;">
            <g transform="matrix(1,0,0,1,420,458)" opacity="1" style="display: block;">
                <path fill="rgb(43,112,201)" fill-opacity="1"
                    d=" M0,-313 C172.7447052001953,-313 313,-172.7447052001953 313,0 C313,172.7447052001953 172.7447052001953,313 0,313 C-172.7447052001953,313 -313,172.7447052001953 -313,0 C-313,-172.7447052001953 -172.7447052001953,-313 0,-313z">
                </path>
            </g>
            <g clip-path="url(#__lottie_element_75)"
                transform="matrix(1.059999942779541,0,0,1.059999942779541,-427.99993896484375,-486.179931640625)"
                opacity="1" style="display: block;">
                <g clip-path="url(#__lottie_element_76)">
                    <g transform="matrix(1,0,0,1,800.0040283203125,961.916015625)" opacity="1" style="display: block;">
                        <g opacity="1" transform="matrix(4,0,0,4,0,0)">
                            <path fill="rgb(2,27,70)" fill-opacity="1"
                                d=" M-43.85599899291992,-88.44000244140625 C-32.57600021362305,-92.93000030517578 -11.28600025177002,-95.16999816894531 0.004000000189989805,-95.16999816894531 C11.284000396728516,-95.16999816894531 32.57400131225586,-92.93000030517578 43.86399841308594,-88.44000244140625 C43.86399841308594,-88.44000244140625 43.86399841308594,-88.44000244140625 43.86399841308594,-88.44000244140625 C63.933998107910156,-80.44999694824219 77.10399627685547,-61.040000915527344 77.10399627685547,-39.439998626708984 C77.10399627685547,-39.439998626708984 77.10399627685547,28.059999465942383 77.10399627685547,28.059999465942383 C77.10399627685547,65.12999725341797 37.06399917602539,95.16999816894531 0.004000000189989805,95.16999816894531 C0.004000000189989805,95.16999816894531 0.004000000189989805,95.16999816894531 0.004000000189989805,95.16999816894531 C-37.066001892089844,95.16999816894531 -77.10600280761719,65.12999725341797 -77.10600280761719,28.059999465942383 C-77.10600280761719,28.059999465942383 -77.10600280761719,-39.439998626708984 -77.10600280761719,-39.439998626708984 C-77.10600280761719,-61.040000915527344 -63.93600082397461,-80.44999694824219 -43.85599899291992,-88.44000244140625z">
                            </path>
                        </g>
                    </g>
                    <g transform="matrix(1,0,0,1,800.0040283203125,931.3289794921875)" opacity="1"
                        style="display: block;">
                        <g opacity="1" transform="matrix(4,0,0,4,0,0)">
                            <path fill="rgb(255,255,255)" fill-opacity="1"
                                d=" M-11.315999984741211,-96.77300262451172 C-7.546000003814697,-97.27300262451172 -3.7760000228881836,-97.52300262451172 0.004000000189989805,-97.52300262451172 C3.7739999294281006,-97.52300262451172 7.544000148773193,-97.27300262451172 11.314000129699707,-96.77300262451172 C11.314000129699707,-96.77300262451172 11.314000129699707,102.24700164794922 11.314000129699707,102.24700164794922 C11.314000129699707,105.16699981689453 8.954000473022461,107.5270004272461 6.044000148773193,107.5270004272461 C6.044000148773193,107.5270004272461 -6.046000003814697,107.5270004272461 -6.046000003814697,107.5270004272461 C-8.956000328063965,107.5270004272461 -11.315999984741211,105.16699981689453 -11.315999984741211,102.24700164794922 C-11.315999984741211,102.24700164794922 -11.315999984741211,-96.77300262451172 -11.315999984741211,-96.77300262451172z">
                            </path>
                        </g>
                    </g>
                    <g transform="matrix(1,0,0,1,801.0570068359375,848.531982421875)" opacity="1"
                        style="display: block;">
                        <g opacity="1" transform="matrix(4,0,0,4,0,0)">
                            <path fill="rgb(27,76,137)" fill-opacity="1"
                                d=" M-35.638999938964844,-42.10599899291992 C-25.608999252319336,-47.26599884033203 -13.718999862670898,-49.83599853515625 0.0010000000474974513,-49.83599853515625 C13.720999717712402,-49.83599853515625 25.611000061035156,-47.26599884033203 35.64099884033203,-42.10599899291992 C50.840999603271484,-34.2859992980957 60.4010009765625,-18.625999450683594 60.4010009765625,-1.5360000133514404 C60.4010009765625,-1.5360000133514404 60.4010009765625,19.923999786376953 60.4010009765625,19.923999786376953 C60.4010009765625,25.624000549316406 57.56100082397461,30.95400047302246 52.83100128173828,34.14400100708008 C37.30099868774414,44.604000091552734 19.590999603271484,49.83399963378906 -0.2590000033378601,49.83399963378906 C-20.099000930786133,49.83399963378906 -37.67900085449219,44.604000091552734 -52.93899917602539,34.15399932861328 C-57.60900115966797,30.964000701904297 -60.39899826049805,25.663999557495117 -60.39899826049805,20.013999938964844 C-60.39899826049805,20.013999938964844 -60.39899826049805,-1.5360000133514404 -60.39899826049805,-1.5360000133514404 C-60.39899826049805,-18.625999450683594 -50.8390007019043,-34.2859992980957 -35.638999938964844,-42.10599899291992z">
                            </path>
                        </g>
                    </g>
                    <g mask="url(#__lottie_element_82)" style="display: block;">
                        <g transform="matrix(1,0,0,1,800.0040283203125,983.1019897460938)" opacity="1">
                            <g opacity="1" transform="matrix(4,0,0,4,0,0)">
                                <path fill="rgb(119,200,0)" fill-opacity="1"
                                    d=" M-35.65599822998047,-78.08399963378906 C-18.18600082397461,-70.68399810791016 -6.216000080108643,-66.98400115966797 0.2639999985694885,-66.98400115966797 C6.693999767303467,-66.98400115966797 18.483999252319336,-70.63400268554688 35.61399841308594,-77.93399810791016 C35.61399841308594,-77.93399810791016 35.61399841308594,-77.93399810791016 35.61399841308594,-77.93399810791016 C47.104000091552734,-82.83399963378906 60.39400100708008,-77.48400115966797 65.29399871826172,-65.99400329589844 C66.49400329589844,-63.194000244140625 67.10399627685547,-60.17399978637695 67.10399627685547,-57.124000549316406 C67.10399627685547,-57.124000549316406 67.10399627685547,12.765999794006348 67.10399627685547,12.765999794006348 C67.10399627685547,49.82600021362305 37.06399917602539,79.8759994506836 0.004000000189989805,79.8759994506836 C0.004000000189989805,79.8759994506836 0.004000000189989805,79.8759994506836 0.004000000189989805,79.8759994506836 C-37.066001892089844,79.8759994506836 -67.10600280761719,49.82600021362305 -67.10600280761719,12.765999794006348 C-67.10600280761719,12.765999794006348 -67.10600280761719,-57.25400161743164 -67.10600280761719,-57.25400161743164 C-67.10600280761719,-69.74400329589844 -56.97600173950195,-79.8740005493164 -44.486000061035156,-79.8740005493164 C-41.45600128173828,-79.8740005493164 -38.45600128173828,-79.26399993896484 -35.65599822998047,-78.08399963378906z">
                                </path>
                            </g>
                        </g>
                    </g>
                    <g mask="url(#__lottie_element_124)" style="display: block;">
                        <g clip-path="url(#__lottie_element_108)" transform="matrix(1,0,0,1,0,-38.083984375)"
                            opacity="1">
                            <g transform="matrix(1,0,0,1,800.0040283203125,914.5670166015625)" opacity="1"
                                style="display: block;">
                                <g opacity="1" transform="matrix(4,0,0,4,0,0)">
                                    <path fill="rgb(142,223,0)" fill-opacity="1"
                                        d=" M-12.845000267028809,-21.591999053955078 C-6.105000019073486,-14.131999969482422 6.284999847412109,-14.161999702453613 12.895000457763672,-21.621999740600586 C12.895000457763672,-4.202000141143799 12.895000457763672,21.74799919128418 12.895000457763672,21.618000030517578 C12.895000457763672,21.538000106811523 4.315000057220459,21.538000106811523 -12.845000267028809,21.618000030517578 C-12.914999961853027,8.918000221252441 -12.914999961853027,-5.492000102996826 -12.845000267028809,-21.591999053955078z">
                                    </path>
                                </g>
                            </g>
                            <g transform="matrix(1,0,0,1,671.5809936523438,933.552001953125)" opacity="1"
                                style="display: block;">
                                <g opacity="1" transform="matrix(4,0,0,4,0,0)">
                                    <path fill="rgb(142,223,0)" fill-opacity="1"
                                        d=" M-0.9330000281333923,-34.27899932861328 C-0.9330000281333923,-34.27899932861328 0.9369999766349792,-34.27899932861328 0.9369999766349792,-34.27899932861328 C14.807000160217285,-34.27899932861328 26.05699920654297,-23.038999557495117 26.05699920654297,-9.159000396728516 C26.05699920654297,-9.159000396728516 26.05699920654297,9.16100025177002 26.05699920654297,9.16100025177002 C26.05699920654297,23.0310001373291 14.807000160217285,34.28099822998047 0.9369999766349792,34.28099822998047 C0.9369999766349792,34.28099822998047 -0.9330000281333923,34.28099822998047 -0.9330000281333923,34.28099822998047 C-14.812999725341797,34.28099822998047 -26.05299949645996,23.0310001373291 -26.05299949645996,9.16100025177002 C-26.05299949645996,9.16100025177002 -26.05299949645996,-9.159000396728516 -26.05299949645996,-9.159000396728516 C-26.05299949645996,-23.038999557495117 -14.812999725341797,-34.27899932861328 -0.9330000281333923,-34.27899932861328z">
                                    </path>
                                </g>
                            </g>
                            <g transform="matrix(1,0,0,1,930.531005859375,931.4420166015625)" opacity="1"
                                style="display: block;">
                                <g opacity="1" transform="matrix(4,0,0,4,0,0)">
                                    <path fill="rgb(142,223,0)" fill-opacity="1"
                                        d=" M-0.9330000281333923,-34.27899932861328 C-0.9330000281333923,-34.27899932861328 0.9369999766349792,-34.27899932861328 0.9369999766349792,-34.27899932861328 C14.807000160217285,-34.27899932861328 26.05699920654297,-23.038999557495117 26.05699920654297,-9.159000396728516 C26.05699920654297,-9.159000396728516 26.05699920654297,9.16100025177002 26.05699920654297,9.16100025177002 C26.05699920654297,23.0310001373291 14.807000160217285,34.28099822998047 0.9369999766349792,34.28099822998047 C0.9369999766349792,34.28099822998047 -0.7929999828338623,34.28099822998047 -0.7929999828338623,34.28099822998047 C-14.593000411987305,34.28099822998047 -25.80299949645996,23.150999069213867 -25.913000106811523,9.361000061035156 C-25.913000106811523,9.361000061035156 -26.05299949645996,-8.968999862670898 -26.05299949645996,-8.968999862670898 C-26.163000106811523,-22.839000701904297 -15.003000259399414,-34.16899871826172 -1.1330000162124634,-34.27899932861328 C-1.062999963760376,-34.27899932861328 -1.003000020980835,-34.27899932861328 -0.9330000281333923,-34.27899932861328z">
                                    </path>
                                </g>
                            </g>
                            <g transform="matrix(1,0,0,1,715.1729736328125,809.885986328125)" opacity="1"
                                style="display: block;">
                                <g opacity="1" transform="matrix(4,0,0,4,0,0)">
                                    <path fill="rgb(142,223,0)" fill-opacity="1"
                                        d=" M-7.566999912261963,-13.206000328063965 C-7.566999912261963,-13.206000328063965 12.623000144958496,8.77400016784668 12.623000144958496,8.77400016784668 C13.682999610900879,9.954000473022461 13.293000221252441,11.824000358581543 11.843000411987305,12.46399974822998 C4.9029998779296875,15.553999900817871 -3.377000093460083,13.814000129699707 -8.597000122070312,8.013999938964844 C-13.817000389099121,2.2039999961853027 -14.687000274658203,-6.22599983215332 -10.88700008392334,-12.815999984741211 C-10.097000122070312,-14.185999870300293 -8.626999855041504,-14.38599967956543 -7.566999912261963,-13.206000328063965z">
                                    </path>
                                </g>
                            </g>
                            <g transform="matrix(1,0,0,1,673.0399780273438,830.9420166015625)" opacity="1"
                                style="display: block;">
                                <g opacity="1" transform="matrix(4,0,0,4,0,0)">
                                    <path fill="rgb(142,223,0)" fill-opacity="1"
                                        d=" M-7.14300012588501,-13.213000297546387 C-7.14300012588501,-13.213000297546387 12.63700008392334,8.786999702453613 12.63700008392334,8.786999702453613 C13.696999549865723,9.956999778747559 13.29699993133545,11.82699966430664 11.857000350952148,12.47700023651123 C4.9070000648498535,15.567000389099121 -3.372999906539917,13.82699966430664 -8.602999687194824,8.017000198364258 C-13.822999954223633,2.2070000171661377 -14.692999839782715,-6.232999801635742 -10.892999649047852,-12.822999954223633 C-10.102999687194824,-14.192999839782715 -8.20300006866455,-14.383000373840332 -7.14300012588501,-13.213000297546387z">
                                    </path>
                                </g>
                            </g>
                            <g transform="matrix(1,0,0,1,925.68701171875,830.9420166015625)" opacity="1"
                                style="display: block;">
                                <g opacity="1" transform="matrix(4,0,0,4,0,0)">
                                    <path fill="rgb(142,223,0)" fill-opacity="1"
                                        d=" M7.146999835968018,-13.213000297546387 C8.206999778747559,-14.383000373840332 10.107000350952148,-14.192999839782715 10.897000312805176,-12.822999954223633 C14.687000274658203,-6.232999801635742 13.82699966430664,2.2070000171661377 8.597000122070312,8.017000198364258 C3.377000093460083,13.82699966430664 -4.913000106811523,15.567000389099121 -11.852999687194824,12.47700023651123 C-13.293000221252441,11.82699966430664 -13.692999839782715,9.956999778747559 -12.633000373840332,8.786999702453613 C-12.633000373840332,8.786999702453613 7.146999835968018,-13.213000297546387 7.146999835968018,-13.213000297546387z">
                                    </path>
                                </g>
                            </g>
                            <g transform="matrix(1,0,0,1,885.68701171875,809.8480224609375)" opacity="1"
                                style="display: block;">
                                <g opacity="1" transform="matrix(4,0,0,4,0,0)">
                                    <path fill="rgb(142,223,0)" fill-opacity="1"
                                        d=" M7.146999835968018,-13.213000297546387 C8.206999778747559,-14.383000373840332 10.107000350952148,-14.192999839782715 10.897000312805176,-12.822999954223633 C14.687000274658203,-6.232999801635742 13.82699966430664,2.2070000171661377 8.597000122070312,8.017000198364258 C3.377000093460083,13.82699966430664 -4.913000106811523,15.567000389099121 -11.852999687194824,12.47700023651123 C-13.293000221252441,11.82699966430664 -13.692999839782715,9.956999778747559 -12.633000373840332,8.786999702453613 C-12.633000373840332,8.786999702453613 7.146999835968018,-13.213000297546387 7.146999835968018,-13.213000297546387z">
                                    </path>
                                </g>
                            </g>
                        </g>
                    </g>
                    <g transform="matrix(1,0,0,1,929.47900390625,886.303955078125)" opacity="1" style="display: block;">
                        <g opacity="1" transform="matrix(4,0,0,4,0,0)">
                            <path fill="rgb(255,255,255)" fill-opacity="1"
                                d=" M-0.0010000000474974513,-23.9950008392334 C-0.0010000000474974513,-23.9950008392334 -0.0010000000474974513,-23.9950008392334 -0.0010000000474974513,-23.9950008392334 C10.168999671936035,-23.9950008392334 18.41900062561035,-15.744999885559082 18.41900062561035,-5.574999809265137 C18.41900062561035,-5.574999809265137 18.41900062561035,5.574999809265137 18.41900062561035,5.574999809265137 C18.41900062561035,15.744999885559082 10.168999671936035,23.9950008392334 -0.0010000000474974513,23.9950008392334 C-0.0010000000474974513,23.9950008392334 -0.0010000000474974513,23.9950008392334 -0.0010000000474974513,23.9950008392334 C-10.170999526977539,23.9950008392334 -18.42099952697754,15.744999885559082 -18.42099952697754,5.574999809265137 C-18.42099952697754,5.574999809265137 -18.42099952697754,-5.574999809265137 -18.42099952697754,-5.574999809265137 C-18.42099952697754,-15.744999885559082 -10.170999526977539,-23.9950008392334 -0.0010000000474974513,-23.9950008392334z">
                            </path>
                        </g>
                    </g>
                    <g transform="matrix(1,0,0,1,668.4229736328125,886.303955078125)" opacity="1"
                        style="display: block;">
                        <g opacity="1" transform="matrix(4,0,0,4,0,0)">
                            <path fill="rgb(255,255,255)" fill-opacity="1"
                                d=" M-0.0010000000474974513,-23.9950008392334 C-0.0010000000474974513,-23.9950008392334 -0.0010000000474974513,-23.9950008392334 -0.0010000000474974513,-23.9950008392334 C10.168999671936035,-23.9950008392334 18.41900062561035,-15.744999885559082 18.41900062561035,-5.574999809265137 C18.41900062561035,-5.574999809265137 18.41900062561035,5.574999809265137 18.41900062561035,5.574999809265137 C18.41900062561035,15.744999885559082 10.168999671936035,23.9950008392334 -0.0010000000474974513,23.9950008392334 C-0.0010000000474974513,23.9950008392334 -0.0010000000474974513,23.9950008392334 -0.0010000000474974513,23.9950008392334 C-10.170999526977539,23.9950008392334 -18.42099952697754,15.744999885559082 -18.42099952697754,5.574999809265137 C-18.42099952697754,5.574999809265137 -18.42099952697754,-5.574999809265137 -18.42099952697754,-5.574999809265137 C-18.42099952697754,-15.744999885559082 -10.170999526977539,-23.9950008392334 -0.0010000000474974513,-23.9950008392334z">
                            </path>
                        </g>
                    </g>
                    <g clip-path="url(#__lottie_element_161)" transform="matrix(1,0,0,1,0,-14.083984375)" opacity="1"
                        style="display: block;">
                        <g transform="matrix(1,0,0,1,917.9000244140625,906.3880004882812)" opacity="1"
                            style="display: block;">
                            <g opacity="1" transform="matrix(4,0,0,4,0,0)">
                                <path fill="rgb(75,75,75)" fill-opacity="1"
                                    d=" M-0.004000000189989805,-13.447999954223633 C-0.004000000189989805,-13.447999954223633 -0.004000000189989805,-13.447999954223633 -0.004000000189989805,-13.447999954223633 C4.796000003814697,-13.447999954223633 8.685999870300293,-9.557999610900879 8.685999870300293,-4.76800012588501 C8.685999870300293,-4.76800012588501 8.685999870300293,4.76200008392334 8.685999870300293,4.76200008392334 C8.685999870300293,9.562000274658203 4.796000003814697,13.45199966430664 -0.004000000189989805,13.45199966430664 C-0.004000000189989805,13.45199966430664 -0.004000000189989805,13.45199966430664 -0.004000000189989805,13.45199966430664 C-4.794000148773193,13.45199966430664 -8.684000015258789,9.562000274658203 -8.684000015258789,4.76200008392334 C-8.684000015258789,4.76200008392334 -8.684000015258789,-4.76800012588501 -8.684000015258789,-4.76800012588501 C-8.684000015258789,-9.557999610900879 -4.794000148773193,-13.447999954223633 -0.004000000189989805,-13.447999954223633z">
                                </path>
                            </g>
                        </g>
                        <g transform="matrix(1,0,0,1,884.2150268554688,872.635986328125)" opacity="1"
                            style="display: block;">
                            <g opacity="1" transform="matrix(4,0,0,4,0,0)">
                                <path fill="rgb(255,255,255)" fill-opacity="1"
                                    d=" M2.9019999504089355,-4.7129998207092285 C4.4770002365112305,-3.736999988555908 5.526000022888184,-1.9919999837875366 5.526000022888184,0 C5.526000022888184,3.058000087738037 3.052000045776367,5.5370001792907715 0,5.5370001792907715 C-0.3630000054836273,5.5370001792907715 -0.7170000076293945,5.502999782562256 -1.059999942779541,5.435999870300293 C-1.3320000171661377,5.382999897003174 -1.128000020980835,2.444999933242798 -0.1420000046491623,-0.20800000429153442 C0.7919999957084656,-2.7219998836517334 2.492000102996826,-4.9670000076293945 2.9019999504089355,-4.7129998207092285z">
                                </path>
                            </g>
                        </g>
                    </g>
                    <g clip-path="url(#__lottie_element_152)" transform="matrix(1,0,0,1,-237,-14.083984375)" opacity="1"
                        style="display: block;">
                        <g transform="matrix(1,0,0,1,917.9000244140625,906.3880004882812)" opacity="1"
                            style="display: block;">
                            <g opacity="1" transform="matrix(4,0,0,4,0,0)">
                                <path fill="rgb(75,75,75)" fill-opacity="1"
                                    d=" M-0.004000000189989805,-13.447999954223633 C-0.004000000189989805,-13.447999954223633 -0.004000000189989805,-13.447999954223633 -0.004000000189989805,-13.447999954223633 C4.796000003814697,-13.447999954223633 8.685999870300293,-9.557999610900879 8.685999870300293,-4.76800012588501 C8.685999870300293,-4.76800012588501 8.685999870300293,4.76200008392334 8.685999870300293,4.76200008392334 C8.685999870300293,9.562000274658203 4.796000003814697,13.45199966430664 -0.004000000189989805,13.45199966430664 C-0.004000000189989805,13.45199966430664 -0.004000000189989805,13.45199966430664 -0.004000000189989805,13.45199966430664 C-4.794000148773193,13.45199966430664 -8.684000015258789,9.562000274658203 -8.684000015258789,4.76200008392334 C-8.684000015258789,4.76200008392334 -8.684000015258789,-4.76800012588501 -8.684000015258789,-4.76800012588501 C-8.684000015258789,-9.557999610900879 -4.794000148773193,-13.447999954223633 -0.004000000189989805,-13.447999954223633z">
                                </path>
                            </g>
                        </g>
                        <g transform="matrix(1,0,0,1,884.2150268554688,872.635986328125)" opacity="1"
                            style="display: block;">
                            <g opacity="1" transform="matrix(4,0,0,4,0,0)">
                                <path fill="rgb(255,255,255)" fill-opacity="1"
                                    d=" M2.9019999504089355,-4.7129998207092285 C4.4770002365112305,-3.736999988555908 5.526000022888184,-1.9919999837875366 5.526000022888184,0 C5.526000022888184,3.058000087738037 3.052000045776367,5.5370001792907715 0,5.5370001792907715 C-0.3630000054836273,5.5370001792907715 -0.7170000076293945,5.502999782562256 -1.059999942779541,5.435999870300293 C-1.3320000171661377,5.382999897003174 -1.128000020980835,2.444999933242798 -0.1420000046491623,-0.20800000429153442 C0.7919999957084656,-2.7219998836517334 2.492000102996826,-4.9670000076293945 2.9019999504089355,-4.7129998207092285z">
                                </path>
                            </g>
                        </g>
                    </g>
                    <g transform="matrix(1,0,0,1,675.6209716796875,966.032958984375)" opacity="1"
                        style="display: block;">
                        <g opacity="1" transform="matrix(4,0,0,4,0,0)">
                            <path fill="rgb(142,223,0)" fill-opacity="1"
                                d=" M-21.729000091552734,0.9850000143051147 C-21.905000686645508,-3.5 -21.804000854492188,-11.805000305175781 -21.804000854492188,-11.805000305175781 C-10.529999732971191,-12.25 9.942999839782715,-6.800000190734863 18.104000091552734,-1.2450000047683716 C18.104000091552734,-1.2450000047683716 12.244000434875488,12.255000114440918 12.244000434875488,12.255000114440918 C-5.144000053405762,12.807999610900879 -12.654999732971191,7.5 -21.729000091552734,0.9850000143051147z">
                            </path>
                        </g>
                    </g>
                    <g transform="matrix(1,0,0,1,929.0029296875,966.032958984375)" opacity="1" style="display: block;">
                        <g opacity="1" transform="matrix(4,0,0,4,0,0)">
                            <path fill="rgb(142,223,0)" fill-opacity="1"
                                d=" M19.39699935913086,2.6689999103546143 C12.347999572753906,9.125 2.9709999561309814,15.262999534606934 -13.718999862670898,12.541999816894531 C-13.718999862670898,12.541999816894531 -19.57900047302246,-0.9580000042915344 -19.57900047302246,-0.9580000042915344 C-12.439000129699707,-6.263000011444092 8.12399959564209,-12.25 19.47800064086914,-12.180000305175781 C19.47800064086914,-12.180000305175781 21.489999771118164,-2.0360000133514404 19.39699935913086,2.6689999103546143z">
                            </path>
                        </g>
                    </g>
                    <g clip-path="url(#__lottie_element_139)" transform="matrix(1,0,0,1,0,-41.083984375)" opacity="1"
                        style="display: block;">
                        <g clip-path="url(#__lottie_element_140)">
                            <g transform="matrix(1.0499999523162842,0,0,1.0499999523162842,929.47900390625,930.3880004882812)"
                                opacity="1" style="display: block;">
                                <g opacity="1" transform="matrix(4,0,0,4,0,0)">
                                    <path fill="rgb(142,224,0)" fill-opacity="1"
                                        d=" M-0.0010000000474974513,-23.9950008392334 C-0.0010000000474974513,-23.9950008392334 -0.0010000000474974513,-23.9950008392334 -0.0010000000474974513,-23.9950008392334 C10.168999671936035,-23.9950008392334 18.41900062561035,-15.744999885559082 18.41900062561035,-5.574999809265137 C18.41900062561035,-5.574999809265137 18.41900062561035,5.574999809265137 18.41900062561035,5.574999809265137 C18.41900062561035,15.744999885559082 10.168999671936035,23.9950008392334 -0.0010000000474974513,23.9950008392334 C-0.0010000000474974513,23.9950008392334 -0.0010000000474974513,23.9950008392334 -0.0010000000474974513,23.9950008392334 C-10.170999526977539,23.9950008392334 -18.42099952697754,15.744999885559082 -18.42099952697754,5.574999809265137 C-18.42099952697754,5.574999809265137 -18.42099952697754,-5.574999809265137 -18.42099952697754,-5.574999809265137 C-18.42099952697754,-15.744999885559082 -10.170999526977539,-23.9950008392334 -0.0010000000474974513,-23.9950008392334z">
                                    </path>
                                </g>
                            </g>
                            <g transform="matrix(1.0499999523162842,0,0,1.0499999523162842,668.4229736328125,930.3880004882812)"
                                opacity="1" style="display: block;">
                                <g opacity="1" transform="matrix(4,0,0,4,0,0)">
                                    <path fill="rgb(142,224,0)" fill-opacity="1"
                                        d=" M-0.0010000000474974513,-23.9950008392334 C-0.0010000000474974513,-23.9950008392334 -0.0010000000474974513,-23.9950008392334 -0.0010000000474974513,-23.9950008392334 C10.168999671936035,-23.9950008392334 18.41900062561035,-15.744999885559082 18.41900062561035,-5.574999809265137 C18.41900062561035,-5.574999809265137 18.41900062561035,5.574999809265137 18.41900062561035,5.574999809265137 C18.41900062561035,15.744999885559082 10.168999671936035,23.9950008392334 -0.0010000000474974513,23.9950008392334 C-0.0010000000474974513,23.9950008392334 -0.0010000000474974513,23.9950008392334 -0.0010000000474974513,23.9950008392334 C-10.170999526977539,23.9950008392334 -18.42099952697754,15.744999885559082 -18.42099952697754,5.574999809265137 C-18.42099952697754,5.574999809265137 -18.42099952697754,-5.574999809265137 -18.42099952697754,-5.574999809265137 C-18.42099952697754,-15.744999885559082 -10.170999526977539,-23.9950008392334 -0.0010000000474974513,-23.9950008392334z">
                                    </path>
                                </g>
                            </g>
                        </g>
                    </g>
                    <g clip-path="url(#__lottie_element_126)" transform="matrix(1,0,0,1,0,-38.083984375)" opacity="1"
                        style="display: block;">
                        <g transform="matrix(1,0,0,1,799.89501953125,1005.3200073242188)" opacity="1"
                            style="display: block;">
                            <g opacity="1" transform="matrix(4,0,0,4,0,0)">
                                <path fill="rgb(244,144,0)" fill-opacity="1"
                                    d=" M-0.026000000536441803,-9.25 C-0.026000000536441803,-9.25 -0.026000000536441803,-9.25 -0.026000000536441803,-9.25 C5.223999977111816,-9.25 11.977999687194824,-4.375 11.977999687194824,-4.375 C11.977999687194824,0.875 5.252999782562256,4.25 0.003000000026077032,4.25 C0.003000000026077032,4.25 0.003000000026077032,4.25 0.003000000026077032,4.25 C-5.247000217437744,4.25 -11.397000312805176,0.875 -11.397000312805176,-4.375 C-11.397000312805176,-4.375 -5.276000022888184,-9.25 -0.026000000536441803,-9.25z">
                                </path>
                            </g>
                        </g>
                        <g style="display: none;"
                            transform="matrix(1.077945351600647,0,0,0.7661637663841248,799.89501953125,998.4218139648438)"
                            opacity="1">
                            <g opacity="1" transform="matrix(4,0,0,4,0,0)">
                                <path fill="rgb(244,144,0)" fill-opacity="1"
                                    d=" M0,-14.5 C0,-14.5 0,-14.5 0,-14.5 C5.25,-14.5 9.5,-10.25 9.5,-5 C9.5,-5 9.5,5 9.5,5 C9.5,10.25 5.25,14.5 0,14.5 C0,14.5 0,14.5 0,14.5 C-5.25,14.5 -9.5,10.25 -9.5,5 C-9.5,5 -9.5,-5 -9.5,-5 C-9.5,-10.25 -5.25,-14.5 0,-14.5z">
                                </path>
                            </g>
                        </g>
                        <g style="display: none;"
                            transform="matrix(1.077945351600647,0,0,0.7661637663841248,799.89501953125,990.7601928710938)"
                            opacity="1">
                            <g opacity="1" transform="matrix(4,0,0,4,0,0)">
                                <path fill="rgb(184,109,0)" fill-opacity="1"
                                    d=" M0,-12 C4.139999866485596,-12 7.5,-8.640000343322754 7.5,-4.5 C7.5,-4.5 7.5,4.5 7.5,4.5 C7.5,8.640000343322754 4.139999866485596,12 0,12 C-4.139999866485596,12 -7.5,8.640000343322754 -7.5,4.5 C-7.5,4.5 -7.5,-4.5 -7.5,-4.5 C-7.5,-8.640000343322754 -4.139999866485596,-12 0,-12 C0,-12 0,-12 0,-12z">
                                </path>
                            </g>
                        </g>
                        <g transform="matrix(1,0,0,1,801.0560302734375,969.7979736328125)" opacity="1"
                            style="display: block;">
                            <g opacity="1" transform="matrix(4,0,0,4,0,0)">
                                <path fill="rgb(255,193,0)" fill-opacity="1"
                                    d=" M-13.157999992370605,4.9670000076293945 C-12.057999610900879,-1.0529999732971191 -6.5279998779296875,-5.732999801635742 0.3720000088214874,-5.732999801635742 C6.521999835968018,-5.732999801635742 12.052000045776367,-1.0529999732971191 13.161999702453613,4.9670000076293945 C13.161999702453613,4.9670000076293945 13.161999702453613,5.736999988555908 13.161999702453613,5.736999988555908 C13.161999702453613,5.736999988555908 -13.157999992370605,5.736999988555908 -13.157999992370605,5.736999988555908 C-13.157999992370605,5.736999988555908 -13.157999992370605,4.9670000076293945 -13.157999992370605,4.9670000076293945z">
                                </path>
                            </g>
                        </g>
                        <g transform="matrix(1,0,0,1,800.0040283203125,963.7420043945312)" opacity="1"
                            style="display: block;">
                            <g opacity="1" transform="matrix(4,0,0,4,0,0)">
                                <path fill="rgb(255,221,0)" fill-opacity="1"
                                    d=" M-2.2009999752044678,2.0369999408721924 C-3.1710000038146973,2.427000045776367 -4.261000156402588,1.9470000267028809 -4.651000022888184,0.9769999980926514 C-5.031000137329102,0.017000000923871994 -4.560999870300293,-1.0829999446868896 -3.5910000801086426,-1.4630000591278076 C-1.2109999656677246,-2.4130001068115234 1.2089999914169312,-2.4130001068115234 3.5889999866485596,-1.4630000591278076 C4.559000015258789,-1.0829999446868896 5.0289998054504395,0.017000000923871994 4.64900016784668,0.9769999980926514 C4.258999824523926,1.9470000267028809 3.1689999103546143,2.427000045776367 2.1989998817443848,2.0369999408721924 C0.718999981880188,1.4470000267028809 -0.7210000157356262,1.4470000267028809 -2.2009999752044678,2.0369999408721924z">
                                </path>
                            </g>
                        </g>
                    </g>
                    <g clip-path="url(#__lottie_element_96)" transform="matrix(1,0,0,1,0,-38.083984375)" opacity="1"
                        style="display: block;">
                        <g transform="matrix(1,0,0,1,932.6370239257812,1136.06201171875)" opacity="1"
                            style="display: block;">
                            <g opacity="1" transform="matrix(4,0,0,4,0,0)">
                                <path fill="rgb(35,82,144)" fill-opacity="1"
                                    d=" M-8.670999526977539,-4.745999813079834 C-8.670999526977539,-4.745999813079834 8.678999900817871,-4.745999813079834 8.678999900817871,-4.745999813079834 C11.298999786376953,-4.745999813079834 13.418999671936035,-2.615999937057495 13.418999671936035,0.004000000189989805 C13.418999671936035,2.624000072479248 11.298999786376953,4.74399995803833 8.678999900817871,4.74399995803833 C8.678999900817871,4.74399995803833 -8.670999526977539,4.74399995803833 -8.670999526977539,4.74399995803833 C-11.291000366210938,4.74399995803833 -13.420999526977539,2.624000072479248 -13.420999526977539,0.004000000189989805 C-13.420999526977539,-2.615999937057495 -11.291000366210938,-4.745999813079834 -8.670999526977539,-4.745999813079834z">
                                </path>
                            </g>
                        </g>
                        <g transform="matrix(1,0,0,1,674.739013671875,1159.2659912109375)" opacity="1"
                            style="display: block;">
                            <g opacity="1" transform="matrix(4,0,0,4,0,0)">
                                <path fill="rgb(35,82,144)" fill-opacity="1"
                                    d=" M0,13.708999633789062 C-7.559999942779541,13.708999633789062 -13.6899995803833,7.568999767303467 -13.6899995803833,-0.0010000000474974513 C-13.6899995803833,-7.571000099182129 -7.559999942779541,-13.711000442504883 0,-13.711000442504883 C7.559999942779541,-13.711000442504883 13.6899995803833,-7.571000099182129 13.6899995803833,-0.0010000000474974513 C13.6899995803833,7.568999767303467 7.559999942779541,13.708999633789062 0,13.708999633789062z">
                                </path>
                            </g>
                        </g>
                        <g transform="matrix(1,0,0,1,674.739013671875,1159.2659912109375)" opacity="1"
                            style="display: block;">
                            <g opacity="1" transform="matrix(4,0,0,4,0,0)">
                                <path fill="rgb(255,255,255)" fill-opacity="1"
                                    d=" M0.004000000189989805,10.543000221252441 C5.814000129699707,10.543000221252441 10.52400016784668,5.822999954223633 10.52400016784668,0.003000000026077032 C10.52400016784668,-5.827000141143799 5.814000129699707,-10.54699993133545 0.004000000189989805,-10.54699993133545 C-5.815999984741211,-10.54699993133545 -10.526000022888184,-5.827000141143799 -10.526000022888184,0.003000000026077032 C-10.526000022888184,5.822999954223633 -5.815999984741211,10.543000221252441 0.004000000189989805,10.543000221252441z">
                                </path>
                            </g>
                        </g>
                        <g transform="matrix(1,0,0,1,659.2249755859375,1175.2320556640625)" opacity="1"
                            style="display: block;">
                            <g opacity="1" transform="matrix(4,0,0,4,0,0)">
                                <path fill="rgb(35,82,144)" fill-opacity="1"
                                    d=" M2.7799999713897705,6.504000186920166 C2.7799999713897705,6.504000186920166 1.350000023841858,0.23399999737739563 1.350000023841858,0.23399999737739563 C1.2300000190734863,-0.28600001335144043 0.75,-0.6359999775886536 0.2199999988079071,-0.5860000252723694 C0.2199999988079071,-0.5860000252723694 -5.869999885559082,-0.01600000075995922 -5.869999885559082,-0.01600000075995922 C-6.110000133514404,-0.6060000061988831 -6.300000190734863,-1.215999960899353 -6.429999828338623,-1.8459999561309814 C-6.429999828338623,-1.8459999561309814 4.980000019073486,-6.47599983215332 4.980000019073486,-6.47599983215332 C5.519999980926514,-6.696000099182129 6.130000114440918,-6.435999870300293 6.349999904632568,-5.895999908447266 C6.429999828338623,-5.705999851226807 6.449999809265137,-5.50600004196167 6.409999847412109,-5.306000232696533 C6.409999847412109,-5.306000232696533 4.170000076293945,6.553999900817871 4.170000076293945,6.553999900817871 C4.070000171661377,6.553999900817871 3.9800000190734863,6.553999900817871 3.880000114440918,6.553999900817871 C3.509999990463257,6.553999900817871 3.140000104904175,6.533999919891357 2.7799999713897705,6.504000186920166z">
                                </path>
                                <path stroke-linecap="butt" stroke-linejoin="miter" fill-opacity="0"
                                    stroke-miterlimit="4" stroke="rgb(35,82,144)" stroke-opacity="1" stroke-width="2"
                                    d=" M2.7799999713897705,6.504000186920166 C2.7799999713897705,6.504000186920166 1.350000023841858,0.23399999737739563 1.350000023841858,0.23399999737739563 C1.2300000190734863,-0.28600001335144043 0.75,-0.6359999775886536 0.2199999988079071,-0.5860000252723694 C0.2199999988079071,-0.5860000252723694 -5.869999885559082,-0.01600000075995922 -5.869999885559082,-0.01600000075995922 C-6.110000133514404,-0.6060000061988831 -6.300000190734863,-1.215999960899353 -6.429999828338623,-1.8459999561309814 C-6.429999828338623,-1.8459999561309814 4.980000019073486,-6.47599983215332 4.980000019073486,-6.47599983215332 C5.519999980926514,-6.696000099182129 6.130000114440918,-6.435999870300293 6.349999904632568,-5.895999908447266 C6.429999828338623,-5.705999851226807 6.449999809265137,-5.50600004196167 6.409999847412109,-5.306000232696533 C6.409999847412109,-5.306000232696533 4.170000076293945,6.553999900817871 4.170000076293945,6.553999900817871 C4.070000171661377,6.553999900817871 3.9800000190734863,6.553999900817871 3.880000114440918,6.553999900817871 C3.509999990463257,6.553999900817871 3.140000104904175,6.533999919891357 2.7799999713897705,6.504000186920166z">
                                </path>
                            </g>
                        </g>
                    </g>
                    <g transform="matrix(1,0,0,1,801.0570068359375,848.531982421875)" opacity="1"
                        style="display: block;">
                        <g opacity="1" transform="matrix(4,0,0,4,0,0)">
                            <path stroke-linecap="butt" stroke-linejoin="miter" fill-opacity="0" stroke-miterlimit="4"
                                stroke="rgb(255,255,255)" stroke-opacity="1" stroke-width="3.691"
                                d=" M-35.638999938964844,-42.10599899291992 C-25.608999252319336,-47.26599884033203 -13.718999862670898,-49.83599853515625 0.0010000000474974513,-49.83599853515625 C13.720999717712402,-49.83599853515625 25.611000061035156,-47.26599884033203 35.64099884033203,-42.10599899291992 C50.840999603271484,-34.2859992980957 60.4010009765625,-18.625999450683594 60.4010009765625,-1.5360000133514404 C60.4010009765625,-1.5360000133514404 60.4010009765625,19.923999786376953 60.4010009765625,19.923999786376953 C60.4010009765625,25.624000549316406 57.56100082397461,30.95400047302246 52.83100128173828,34.14400100708008 C37.30099868774414,44.604000091552734 19.590999603271484,49.83399963378906 -0.2590000033378601,49.83399963378906 C-20.099000930786133,49.83399963378906 -37.67900085449219,44.604000091552734 -52.93899917602539,34.15399932861328 C-57.60900115966797,30.964000701904297 -60.39899826049805,25.663999557495117 -60.39899826049805,20.013999938964844 C-60.39899826049805,20.013999938964844 -60.39899826049805,-1.5360000133514404 -60.39899826049805,-1.5360000133514404 C-60.39899826049805,-18.625999450683594 -50.8390007019043,-34.2859992980957 -35.638999938964844,-42.10599899291992z">
                            </path>
                        </g>
                    </g>
                    <g transform="matrix(1,0,0,1,669.4760131835938,742.531005859375)" opacity="1"
                        style="display: block;">
                        <g opacity="1" transform="matrix(4,0,0,4,0,0)">
                            <path fill="rgb(255,255,255)" fill-opacity="1"
                                d=" M0,-8.701499938964844 C4.792975425720215,-8.701499938964844 8.684499740600586,-4.8023576736450195 8.684499740600586,0 C8.684499740600586,4.8023576736450195 4.792975425720215,8.701499938964844 0,8.701499938964844 C-4.792975425720215,8.701499938964844 -8.684499740600586,4.8023576736450195 -8.684499740600586,0 C-8.684499740600586,-4.8023576736450195 -4.792975425720215,-8.701499938964844 0,-8.701499938964844z">
                            </path>
                        </g>
                    </g>
                    <g transform="matrix(1,0,0,1,799.89501953125,847.2360229492188)" opacity="0.39"
                        style="display: block;">
                        <g opacity="1" transform="matrix(4,0,0,4,0,0)">
                            <path fill="rgb(151,221,255)" fill-opacity="1"
                                d=" M-35.16999816894531,-39.61399841308594 C-25.09000015258789,-44.933998107910156 -13.130000114440918,-47.59400177001953 0.7200000286102295,-47.59400177001953 C13.65999984741211,-47.59400177001953 24.8700008392334,-45.2140007019043 34.36000061035156,-40.45399856567383 C34.36000061035156,-40.45399856567383 34.36000061035156,-40.45399856567383 34.36000061035156,-40.45399856567383 C49.15999984741211,-33.02399826049805 58.5,-17.884000778198242 58.5,-1.3339999914169312 C58.5,-1.3339999914169312 58.5,20.549999237060547 58.5,20.549999237060547 C58.5,25.68000030517578 55.93000030517578,30.469999313354492 51.650001525878906,33.29999923706055 C36.599998474121094,43.27000045776367 19.450000762939453,48.25 0.20000000298023224,48.25 C-19.059999465942383,48.25 -36.31999969482422,43.2599983215332 -51.58000183105469,33.279998779296875 C-51.58000183105469,33.279998779296875 -51.58000183105469,33.279998779296875 -51.58000183105469,33.279998779296875 C-55.900001525878906,30.459999084472656 -58.5,25.639999389648438 -58.5,20.479999542236328 C-58.5,20.479999542236328 -58.5,-0.9039999842643738 -58.5,-0.9039999842643738 C-58.5,-17.134000778198242 -49.52000045776367,-32.034000396728516 -35.16999816894531,-39.61399841308594z">
                            </path>
                        </g>
                    </g>
                    <g mask="url(#__lottie_element_78)" style="display: block;">
                        <g transform="matrix(1.399999976158142,0,0,1.399999976158142,278.90899658203125,2060.864013671875)"
                            opacity="1">
                            <g opacity="1" transform="matrix(1,0,0,1,0,0)">
                                <path fill="rgb(255,255,255)" fill-opacity="1"
                                    d=" M179.5,-920.5 C179.5,-920.5 133.5,-885.5 87.5,-848.5 C87.5,-678.5 197.5,-578.5 341.5,-565.5 C385.5,-607.5 438.5,-655.5 438.5,-655.5 C438.5,-655.5 302.5,-639.5 227.5,-729.5 C152.5,-819.5 179.5,-920.5 179.5,-920.5z">
                                </path>
                            </g>
                        </g>
                    </g>
                </g>
            </g>
        </g>
    </g>
</svg>